<svg width="48" height="48" viewBox="0 0 48 48" fill="none" xmlns="http://www.w3.org/2000/svg">
<circle cx="24" cy="24" r="23.5" stroke="#B0B0B0"/>
<path d="M30.9998 17C30.781 16.7813 30.4843 16.6584 30.175 16.6584C29.8656 16.6584 29.5689 16.7813 29.3501 17L23.9998 22.3503L18.6495 17C18.4307 16.7813 18.134 16.6584 17.8246 16.6584C17.5153 16.6584 17.2186 16.7813 16.9998 17C16.7811 17.2188 16.6582 17.5154 16.6582 17.8248C16.6582 18.1342 16.7811 18.4309 16.9998 18.6496L22.3501 24L16.9998 29.3503C16.7811 29.5691 16.6582 29.8658 16.6582 30.1751C16.6582 30.4845 16.7811 30.7812 16.9998 31C17.2186 31.2187 17.5153 31.3416 17.8246 31.3416C18.134 31.3416 18.4307 31.2187 18.6495 31L23.9998 25.6496L29.3501 31C29.5689 31.2187 29.8656 31.3416 30.175 31.3416C30.4843 31.3416 30.781 31.2187 30.9998 31C31.2185 30.7812 31.3414 30.4845 31.3414 30.1751C31.3414 29.8658 31.2185 29.5691 30.9998 29.3503L25.6495 24L30.9998 18.6496C31.2185 18.4309 31.3414 18.1342 31.3414 17.8248C31.3414 17.5154 31.2185 17.2188 30.9998 17Z" fill="#747474"/>
</svg>
